<svg version="1.1" 
    xmlns="http://www.w3.org/2000/svg" 
    xmlns:xlink="http://www.w3.org/1999/xlink" x="0px" y="0px" viewBox="0 0 1000 1000" enable-background="new 0 0 1000 1000" xml:space="preserve">
    <metadata> 矢量图标下载 : http://www.sfont.cn/ </metadata>
    <g>
        <path d="M500.1,941.6L500.1,941.6C256.5,941.6,58.4,743.5,58.4,500c0-235.4,185.1-428.3,417.4-440.9v454.5l387.8,236.6C783.9,865.7,650.7,941.6,500.1,941.6z M524.2,59.1c103.6,5.6,197.7,47.1,270.3,112.2L524.2,441.6V59.1z M941.6,500c0,75.6-19.1,146.7-52.7,209L538.9,495.4l289.9-289.9C898.8,283.7,941.6,386.9,941.6,500z M500,10C229.8,10,10,229.8,10,500c0,270.2,219.8,490,490,490l0-24.2V990C770.2,990,990,770.2,990,500C990,229.8,770.2,10,500,10z" style="fill:#56abe4"></path>
    </g>
</svg>